<?xml version="1.0" encoding="UTF-8" standalone="no"?>
<svg
   xmlns:dc="http://purl.org/dc/elements/1.1/"
   xmlns:cc="http://creativecommons.org/ns#"
   xmlns:rdf="http://www.w3.org/1999/02/22-rdf-syntax-ns#"
   xmlns:svg="http://www.w3.org/2000/svg"
   xmlns="http://www.w3.org/2000/svg"
   xmlns:sodipodi="http://sodipodi.sourceforge.net/DTD/sodipodi-0.dtd"
   xmlns:inkscape="http://www.inkscape.org/namespaces/inkscape"
   version="1.1"
   x="0px"
   y="0px"
   fill="#ffffff"
   viewBox="0 0 696.20001 556.96001"
   enable-background="new 0 0 1000 1000"
   xml:space="preserve"
   id="svg3784"
   sodipodi:docname="icon-peanuts.svg"
   width="1392.4"
   height="1392.4"
   inkscape:version="0.92.3 (2405546, 2018-03-11)"><metadata
     id="metadata3790"><rdf:RDF><cc:Work
         rdf:about=""><dc:format>image/svg+xml</dc:format><dc:type
           rdf:resource="http://purl.org/dc/dcmitype/StillImage" /><dc:title></dc:title></cc:Work></rdf:RDF></metadata><defs
     id="defs3788" /><sodipodi:namedview
     pagecolor="#ffffff"
     bordercolor="#666666"
     borderopacity="1"
     objecttolerance="10"
     gridtolerance="10"
     guidetolerance="10"
     inkscape:pageopacity="0"
     inkscape:pageshadow="2"
     inkscape:window-width="1013"
     inkscape:window-height="728"
     id="namedview3786"
     showgrid="false"
     viewbox-width="500"
     fit-margin-top="0"
     fit-margin-left="0"
     fit-margin-right="0"
     fit-margin-bottom="0"
     inkscape:zoom="0.1888"
     inkscape:cx="1397.2339"
     inkscape:cy="887.3695"
     inkscape:window-x="0"
     inkscape:window-y="0"
     inkscape:window-maximized="0"
     inkscape:current-layer="svg3784" /><g
     id="g3782"
     transform="translate(-151.9,-214.4)"><path
       d="M 820.7,364.5 C 803.2,323 778.1,285.8 746.1,253.9 714.1,221.9 676.9,196.8 635.5,179.3 592.6,161.1 547,151.9 500,151.9 c -47,0 -92.6,9.2 -135.5,27.4 -41.5,17.5 -78.7,42.6 -110.6,74.6 -32,32 -57.1,69.2 -74.6,110.6 -18.2,42.9 -27.4,88.5 -27.4,135.5 0,47 9.2,92.6 27.4,135.5 17.5,41.5 42.6,78.7 74.6,110.6 32,32 69.2,57.1 110.6,74.6 42.9,18.2 88.5,27.4 135.5,27.4 47,0 92.6,-9.2 135.5,-27.4 41.5,-17.5 78.7,-42.6 110.6,-74.6 32,-32 57.1,-69.2 74.6,-110.6 18.2,-42.9 27.4,-88.5 27.4,-135.5 0,-47 -9.2,-92.6 -27.4,-135.5 z M 171.9,500 c 0,-87.6 34.1,-170 96.1,-232 62,-62 144.4,-96.1 232,-96.1 86,0 166.9,32.9 228.5,92.7 L 604.3,388.8 c -15.8,-3.3 -32.2,-1.6 -47,4.8 -8.1,-19.1 -23.5,-34.5 -43.1,-42.4 l -97.9,-39.4 c -19.5,-7.8 -40.8,-7.6 -60.2,0.6 -19.3,8.2 -34.3,23.5 -42.1,43 l -0.5,1.3 c -16.2,40.2 3.4,86.1 43.6,102.2 l 97.9,39.4 c 11,4.4 22.7,6.2 34.3,5.5 l -25.9,25.9 c -14.3,-11.2 -32,-17.1 -50.8,-16.5 l -47.8,1.5 c -43.3,1.4 -77.4,37.7 -76.1,81.1 v 1.4 c 0.7,20.5 9.1,39.7 23.9,54 5.1,4.9 10.7,9.1 16.8,12.4 l -64.9,64.9 C 204.8,666.9 171.9,586 171.9,500 Z m 155,136.5 C 316,626 309.7,611.8 309.2,596.6 v -1.4 c -1,-32 24.2,-58.9 56.2,-59.9 l 47.8,-1.5 c 0.6,0 1.3,0 1.9,0 18.3,0 35.2,8.4 46.3,23 2,2.7 5.2,4.2 8.5,4.1 3.3,-0.1 6.4,-1.8 8.2,-4.6 10.4,-15.7 27.8,-25.4 46.6,-26 l 105.5,-3.4 c 1,0 1.9,0 2.9,0 0.6,0 1.1,0 1.7,0.1 0.4,0 0.8,0 1.2,0.1 0.6,0 1.3,0.1 1.9,0.2 0.3,0 0.6,0.1 0.9,0.1 0.7,0.1 1.3,0.2 2,0.3 0.3,0 0.5,0.1 0.8,0.1 0.7,0.1 1.4,0.3 2,0.4 0.2,0.1 0.5,0.1 0.7,0.1 0.7,0.1 1.4,0.3 2,0.5 0.2,0.1 0.5,0.1 0.7,0.2 0.7,0.2 1.4,0.4 2,0.6 0.2,0.1 0.5,0.1 0.7,0.2 0.7,0.2 1.3,0.5 2,0.7 0.2,0.1 0.5,0.2 0.7,0.2 0.7,0.2 1.3,0.5 1.9,0.8 0.2,0.1 0.5,0.2 0.7,0.3 0.6,0.3 1.3,0.6 1.9,0.9 0.2,0.1 0.5,0.2 0.7,0.3 0.6,0.3 1.2,0.6 1.8,1 0.2,0.1 0.5,0.2 0.7,0.4 0.6,0.3 1.2,0.7 1.8,1 0.2,0.1 0.5,0.3 0.7,0.4 0.6,0.4 1.1,0.7 1.7,1.1 0.2,0.2 0.5,0.3 0.7,0.5 0.5,0.4 1.1,0.8 1.6,1.2 0.2,0.2 0.5,0.4 0.7,0.6 0.5,0.4 1,0.8 1.5,1.2 0.3,0.2 0.5,0.4 0.8,0.6 0.5,0.4 0.9,0.8 1.4,1.2 0.4,0.4 0.9,0.8 1.3,1.2 10.9,10.5 17.2,24.7 17.7,39.9 v 1.4 c 0.5,15.5 -5.1,30.3 -15.7,41.6 -10.6,11.3 -25,17.8 -40.5,18.3 L 528.3,648 c -19.1,0.6 -36.7,-7.9 -48.2,-23 -2,-2.7 -5.2,-4.2 -8.5,-4.1 -3.3,0.1 -6.4,1.8 -8.2,4.6 -10.4,15.7 -27.8,25.4 -46.6,26 L 369,653 c -15.7,0.3 -30.7,-5.6 -42.1,-16.5 z M 519.6,506 c 0.7,1.3 1.5,2.6 2.3,3.9 -2.3,0.1 -4.6,0.4 -6.9,0.7 z m 167,-0.8 -0.5,1.3 c -2.1,5.3 -4.9,10.1 -8.4,14.4 -0.4,-0.3 -0.8,-0.5 -1.1,-0.8 -0.6,-0.4 -1.2,-0.8 -1.8,-1.2 -0.4,-0.3 -0.9,-0.6 -1.3,-0.8 -0.6,-0.4 -1.1,-0.7 -1.7,-1 -0.4,-0.3 -0.9,-0.5 -1.3,-0.8 -0.7,-0.4 -1.4,-0.8 -2.1,-1.1 -0.3,-0.2 -0.7,-0.4 -1,-0.5 -1,-0.5 -2,-1 -3,-1.4 -0.4,-0.2 -0.8,-0.3 -1.2,-0.5 -0.7,-0.3 -1.4,-0.6 -2.1,-0.9 -0.4,-0.2 -0.8,-0.3 -1.3,-0.5 -0.8,-0.3 -1.5,-0.6 -2.3,-0.8 -0.4,-0.1 -0.7,-0.2 -1.1,-0.4 -1.1,-0.4 -2.2,-0.7 -3.3,-1 -0.2,-0.1 -0.5,-0.1 -0.7,-0.2 -0.9,-0.2 -1.8,-0.5 -2.8,-0.7 -0.4,-0.1 -0.8,-0.2 -1.2,-0.3 -0.8,-0.2 -1.6,-0.3 -2.4,-0.5 -0.4,-0.1 -0.8,-0.1 -1.1,-0.2 -1,-0.2 -2,-0.3 -3.1,-0.4 -0.2,0 -0.3,0 -0.5,-0.1 -1.2,-0.1 -2.4,-0.2 -3.6,-0.3 -0.3,0 -0.7,0 -1,-0.1 -0.9,-0.1 -1.7,-0.1 -2.6,-0.1 -0.4,0 -0.8,0 -1.2,0 -0.3,0 -0.6,0 -0.9,0 -0.9,0 -1.7,0 -2.6,0 l -81.8,2.6 c -8,-7.7 -13.8,-17.7 -16.3,-28.5 -0.8,-3.2 -3.1,-5.9 -6.2,-7.1 -3.1,-1.2 -6.6,-0.9 -9.4,0.9 -15.8,10.2 -35.7,12.1 -53.1,5.1 L 364.7,439.9 C 335,428 320.6,394.1 332.5,364.4 l 0.5,-1.3 c 5.8,-14.4 16.8,-25.7 31.1,-31.7 14.3,-6.1 30,-6.2 44.4,-0.5 l 97.9,39.4 c 17.4,7 30.5,22.1 34.8,40.4 0.8,3.2 3.1,5.9 6.2,7.1 3.1,1.2 6.6,0.9 9.4,-0.9 15.8,-10.2 35.7,-12.1 53.1,-5.1 l 44.4,17.8 c 29.8,12.1 44.2,45.9 32.3,75.6 z M 732,732 c -62,62 -144.4,96.1 -232,96.1 -81.6,0 -158.6,-29.6 -218.8,-83.6 l 72.3,-72.3 c 4.5,0.8 9.1,1.2 13.8,1.2 0.8,0 1.7,0 2.5,0 l 47.8,-1.5 c 21,-0.7 40.8,-9.8 55,-25 15.1,14.3 35.1,22.1 56.5,21.4 l 105.5,-3.4 c 21,-0.7 40.5,-9.5 54.8,-24.8 14.4,-15.3 21.9,-35.3 21.2,-56.3 v -1.4 c -0.6,-17.5 -6.9,-34.1 -17.9,-47.4 5.2,-6.2 9.3,-13.2 12.4,-20.8 l 0.5,-1.3 C 721.8,472.7 702.2,426.8 662,410.7 l -33.6,-13.5 116,-116 c 54.1,60.2 83.6,137.3 83.6,218.8 0.1,87.6 -34,170 -96,232 z"
       id="path3776"
       inkscape:connector-curvature="0" /><path
       d="m 525.6,558.9 105.5,-3.4 c 7.8,-0.3 15.3,2.6 21.1,8 5.7,5.4 9,12.7 9.3,20.5 v 1.4 c 0.2,5.6 4.7,9.9 10.3,9.9 0.1,0 0.2,0 0.3,0 5.7,-0.2 10.1,-4.9 9.9,-10.6 v -1.4 C 681.6,570 676,557.6 666.2,548.5 656.5,539.4 643.8,534.6 630.4,535 L 525,538.3 c -5.7,0.2 -10.1,4.9 -9.9,10.6 0.1,5.7 4.8,10.2 10.5,10 z"
       id="path3778"
       inkscape:connector-curvature="0" /><path
       d="m 503.5,377.8 -97.9,-39.4 c -25.6,-10.3 -54.7,2.2 -65,27.7 l -0.5,1.3 c -2.1,5.3 0.4,11.2 5.7,13.4 5.3,2.1 11.2,-0.4 13.4,-5.7 l 0.5,-1.3 c 6.1,-15.1 23.2,-22.4 38.3,-16.3 l 97.9,39.4 c 1.3,0.5 2.6,0.7 3.8,0.7 4.1,0 7.9,-2.4 9.5,-6.4 2.1,-5.3 -0.4,-11.3 -5.7,-13.4 z"
       id="path3780"
       inkscape:connector-curvature="0" /></g></svg>