<?xml version="1.0" encoding="UTF-8" standalone="no"?>
<svg
   xmlns:dc="http://purl.org/dc/elements/1.1/"
   xmlns:cc="http://creativecommons.org/ns#"
   xmlns:rdf="http://www.w3.org/1999/02/22-rdf-syntax-ns#"
   xmlns:svg="http://www.w3.org/2000/svg"
   xmlns="http://www.w3.org/2000/svg"
   xmlns:sodipodi="http://sodipodi.sourceforge.net/DTD/sodipodi-0.dtd"
   xmlns:inkscape="http://www.inkscape.org/namespaces/inkscape"
   version="1.1"
   id="svg4359"
   fill="#ffffff"
   sodipodi:docname="icon-sugar.svg"
   width="128"
   height="128"
   inkscape:version="0.92.3 (2405546, 2018-03-11)">
  <metadata
     id="metadata4365">
    <rdf:RDF>
      <cc:Work
         rdf:about="">
        <dc:format>image/svg+xml</dc:format>
        <dc:type
           rdf:resource="http://purl.org/dc/dcmitype/StillImage" />
        <dc:title></dc:title>
      </cc:Work>
    </rdf:RDF>
  </metadata>
  <defs
     id="defs4363" />
  <sodipodi:namedview
     pagecolor="#ffffff"
     bordercolor="#666666"
     borderopacity="1"
     objecttolerance="10"
     gridtolerance="10"
     guidetolerance="10"
     inkscape:pageopacity="0"
     inkscape:pageshadow="2"
     inkscape:window-width="640"
     inkscape:window-height="480"
     id="namedview4361"
     showgrid="false"
     fit-margin-top="0"
     fit-margin-left="0"
     fit-margin-right="0"
     fit-margin-bottom="0"
     inkscape:zoom="2.36"
     inkscape:cx="50"
     inkscape:cy="78"
     inkscape:window-x="0"
     inkscape:window-y="0"
     inkscape:window-maximized="0"
     inkscape:current-layer="svg4359" />
  <path
     d="M 58,96 H 22 A 2,2 0 0 1 20,94 V 58 a 2,2 0 0 1 2,-2 h 36 a 2,2 0 0 1 2,2 v 36 a 2,2 0 0 1 -2,2 z M 24,92 H 56 V 60 H 24 Z"
     id="path4335"
     inkscape:connector-curvature="0" />
  <path
     d="M 106,96 H 70 A 2,2 0 0 1 68,94 V 58 a 2,2 0 0 1 2,-2 h 36 a 2,2 0 0 1 2,2 v 36 a 2,2 0 0 1 -2,2 z M 72,92 h 32 V 60 H 72 Z"
     id="path4337"
     inkscape:connector-curvature="0" />
  <path
     d="M 78,60 H 42 A 2,2 0 0 1 40,58 V 22 a 2,2 0 0 1 2,-2 h 36 a 2,2 0 0 1 2,2 v 36 a 2,2 0 0 1 -2,2 z M 44,56 H 76 V 24 H 44 Z"
     id="path4339"
     inkscape:connector-curvature="0" />
  <path
     d="m 38,64 a 2,2 0 1 0 2,2 2,2 0 0 0 -2,-2 z"
     id="path4341"
     inkscape:connector-curvature="0" />
  <path
     d="m 54,32 a 2,2 0 1 0 2,2 2,2 0 0 0 -2,-2 z"
     id="path4343"
     inkscape:connector-curvature="0" />
  <path
     d="m 30,80 a 2,2 0 1 0 2,2 2,2 0 0 0 -2,-2 z"
     id="path4345"
     inkscape:connector-curvature="0" />
  <path
     d="m 62,40 a 2,2 0 1 0 2,2 2,2 0 0 0 -2,-2 z"
     id="path4347"
     inkscape:connector-curvature="0" />
  <path
     d="m 94,68 a 2,2 0 1 0 2,2 2,2 0 0 0 -2,-2 z"
     id="path4349"
     inkscape:connector-curvature="0" />
  <path
     d="m 90,84 a 2,2 0 1 0 2,2 2,2 0 0 0 -2,-2 z"
     id="path4351"
     inkscape:connector-curvature="0" />
  <path
     d="m 82,72 a 2,2 0 1 0 2,2 2,2 0 0 0 -2,-2 z"
     id="path4353"
     inkscape:connector-curvature="0" />
  <path
     d="M 64,128 A 64,64 0 1 1 128,64 64.07,64.07 0 0 1 64,128 Z M 64,4 A 60,60 0 1 0 124,64 60.07,60.07 0 0 0 64,4 Z"
     id="path4355"
     inkscape:connector-curvature="0" />
  <path
     d="m 20.16,109.84 a 2,2 0 0 1 -1.41,-3.41 l 87.68,-87.68 a 2.0011122,2.0011122 0 0 1 2.83,2.83 l -87.69,87.67 a 2,2 0 0 1 -1.41,0.59 z"
     id="path4357"
     inkscape:connector-curvature="0" />
</svg>
