<svg xmlns="http://www.w3.org/2000/svg" xmlns:xlink="http://www.w3.org/1999/xlink" viewBox="0 0 24 30" version="1.1" x="0px" y="0px"><g stroke="none" stroke-width="1" fill="currentColor" fill-rule="evenodd"><path d="M18,15 L15,18 L15,16 L14.338,16 C13.166,16 12.078,15.418 11.427,14.441 L13.09,13.332 C13.369,13.75 13.836,14 14.338,14 L15,14 L15,12 L15,10 L14.338,10 C13.836,10 13.369,10.25 13.09,10.668 L10.574,14.441 C9.923,15.418 8.834,16 7.662,16 L6,16 L6,14 L7.662,14 C8.164,14 8.631,13.75 8.91,13.332 L11.426,9.559 C12.078,8.582 13.166,8 14.338,8 L15,8 L15,6 L18,9 L15,12 L18,15 Z M6,8 L7.662,8 C8.834,8 9.923,8.582 10.574,9.558 L8.91,10.668 C8.631,10.25 8.164,10 7.662,10 L6,10 L6,8 Z M12,2 C6.478,2 2,6.477 2,12 C2,17.522 6.478,22 12,22 C17.522,22 22,17.522 22,12 C22,6.477 17.522,2 12,2 L12,2 Z" fill="currentColor"/></g></svg>