<?xml version="1.0" encoding="UTF-8" standalone="no"?>
<svg
   xmlns:dc="http://purl.org/dc/elements/1.1/"
   xmlns:cc="http://creativecommons.org/ns#"
   xmlns:rdf="http://www.w3.org/1999/02/22-rdf-syntax-ns#"
   xmlns:svg="http://www.w3.org/2000/svg"
   xmlns="http://www.w3.org/2000/svg"
   xmlns:sodipodi="http://sodipodi.sourceforge.net/DTD/sodipodi-0.dtd"
   xmlns:inkscape="http://www.inkscape.org/namespaces/inkscape"
   version="1.1"
   id="svg3729"
   fill="#ffffff"
   sodipodi:docname="icon-vegan.svg"
   width="75.334"
   height="75.334"
   inkscape:version="0.92.3 (2405546, 2018-03-11)">
  <metadata
     id="metadata3735">
    <rdf:RDF>
      <cc:Work
         rdf:about="">
        <dc:format>image/svg+xml</dc:format>
        <dc:type
           rdf:resource="http://purl.org/dc/dcmitype/StillImage" />
        <dc:title></dc:title>
      </cc:Work>
    </rdf:RDF>
  </metadata>
  <defs
     id="defs3733" />
  <sodipodi:namedview
     pagecolor="#ffffff"
     bordercolor="#666666"
     borderopacity="1"
     objecttolerance="10"
     gridtolerance="10"
     guidetolerance="10"
     inkscape:pageopacity="0"
     inkscape:pageshadow="2"
     inkscape:window-width="1600"
     inkscape:window-height="837"
     id="namedview3731"
     showgrid="false"
     fit-margin-top="0"
     fit-margin-left="0"
     fit-margin-right="0"
     fit-margin-bottom="0"
     inkscape:zoom="6.7"
     inkscape:cx="37.667"
     inkscape:cy="37.667"
     inkscape:window-x="-8"
     inkscape:window-y="-8"
     inkscape:window-maximized="1"
     inkscape:current-layer="svg3729" />
  <path
     d="M 37.667,0 C 16.897,0 0,16.897 0,37.667 c 0,20.77 16.897,37.667 37.667,37.667 20.77,0 37.667,-16.897 37.667,-37.667 C 75.334,16.897 58.437,0 37.667,0 Z m 0,73.334 C 18,73.334 2,57.334 2,37.667 2,18 18,2 37.667,2 c 19.667,0 35.667,16 35.667,35.667 0,19.667 -16,35.667 -35.667,35.667 z"
     id="path3725"
     inkscape:connector-curvature="0" />
  <path
     d="m 63.611,34.178 c -0.138,-0.057 -3.413,-1.393 -7.768,-1.393 -3.713,0 -7.053,0.959 -9.927,2.852 -2.024,1.333 -3.408,3.374 -3.896,5.748 -0.444,2.154 -0.094,4.345 0.969,6.245 -0.917,1.052 -1.768,2.249 -2.432,3.61 -0.375,-1.349 -0.97,-2.873 -1.887,-4.442 3.666,-4.677 3.598,-11.459 -0.481,-16.061 -6.857,-7.735 -17.051,-8.57 -21.115,-8.57 -1.463,0 -2.358,0.1 -2.396,0.104 -0.413,0.047 -0.753,0.344 -0.855,0.747 -0.146,0.573 -3.476,14.157 5.58,24.373 2.381,2.686 5.806,4.226 9.397,4.226 3.067,0 6.023,-1.122 8.321,-3.159 0.057,-0.051 0.106,-0.107 0.162,-0.159 2.185,4.019 1.93,7.51 1.906,7.77 0,0.002 0,0.003 -10e-4,0.005 -0.051,0.549 0.353,1.037 0.901,1.089 0.032,0.003 0.064,0.004 0.096,0.004 0.51,0 0.944,-0.387 0.994,-0.904 0,0 0,-10e-4 10e-4,-0.002 0.259,-2.765 1.491,-5.058 3.004,-6.902 2.153,2.579 4.55,3.163 6.273,3.163 2.536,0 4.646,-1.209 5.437,-1.729 7.938,-5.227 8.32,-15.238 8.333,-15.662 0.012,-0.415 -0.233,-0.794 -0.616,-0.953 z m -34.749,3.937 c -0.498,-0.242 -1.096,-0.035 -1.337,0.462 -0.241,0.497 -0.035,1.095 0.462,1.337 3.976,1.935 6.546,4.317 8.211,6.652 -0.134,0.132 -0.26,0.268 -0.402,0.394 -1.933,1.713 -4.417,2.656 -6.995,2.656 -3.02,0 -5.899,-1.295 -7.901,-3.552 -7.232,-8.16 -5.81,-19.032 -5.282,-21.859 0.365,-0.02 0.859,-0.038 1.457,-0.038 3.794,0 13.301,0.77 19.619,7.897 3.273,3.694 3.469,9.057 0.799,12.957 -1.835,-2.464 -4.56,-4.925 -8.631,-6.906 z m 25.933,11.007 c -0.639,0.421 -2.341,1.399 -4.337,1.399 -1.876,0 -3.523,-0.894 -4.91,-2.655 2.724,-2.643 5.71,-3.985 5.763,-4.009 0.505,-0.222 0.735,-0.812 0.515,-1.317 -0.222,-0.504 -0.805,-0.736 -1.316,-0.516 -0.228,0.099 -3.2,1.435 -6.049,4.086 -0.609,-1.348 -0.786,-2.846 -0.482,-4.323 0.382,-1.85 1.46,-3.441 3.038,-4.48 2.542,-1.674 5.512,-2.522 8.827,-2.522 2.845,0 5.217,0.641 6.327,1.001 -0.244,2.28 -1.466,9.445 -7.376,13.336 z"
     id="path3727"
     inkscape:connector-curvature="0" />
</svg>
