<?xml version="1.0" encoding="UTF-8" standalone="no"?>
<svg
   xmlns:dc="http://purl.org/dc/elements/1.1/"
   xmlns:cc="http://creativecommons.org/ns#"
   xmlns:rdf="http://www.w3.org/1999/02/22-rdf-syntax-ns#"
   xmlns:svg="http://www.w3.org/2000/svg"
   xmlns="http://www.w3.org/2000/svg"
   xmlns:sodipodi="http://sodipodi.sourceforge.net/DTD/sodipodi-0.dtd"
   xmlns:inkscape="http://www.inkscape.org/namespaces/inkscape"
   xml:space="preserve"
   version="1.1"
   id="svg4295"
   fill="#ffffff"
   sodipodi:docname="icon-vegetarian.svg"
   width="797.29858"
   height="797.29858"
   inkscape:version="0.92.3 (2405546, 2018-03-11)"><metadata
     id="metadata4301"><rdf:RDF><cc:Work
         rdf:about=""><dc:format>image/svg+xml</dc:format><dc:type
           rdf:resource="http://purl.org/dc/dcmitype/StillImage" /><dc:title></dc:title></cc:Work></rdf:RDF></metadata><defs
     id="defs4299" /><sodipodi:namedview
     pagecolor="#ffffff"
     bordercolor="#666666"
     borderopacity="1"
     objecttolerance="10"
     gridtolerance="10"
     guidetolerance="10"
     inkscape:pageopacity="0"
     inkscape:pageshadow="2"
     inkscape:window-width="1600"
     inkscape:window-height="837"
     id="namedview4297"
     showgrid="false"
     fit-margin-top="0"
     fit-margin-left="0"
     fit-margin-right="0"
     fit-margin-bottom="0"
     inkscape:zoom="2.36"
     inkscape:cx="25.64928"
     inkscape:cy="771.64928"
     inkscape:window-x="-8"
     inkscape:window-y="-8"
     inkscape:window-maximized="1"
     inkscape:current-layer="svg4295" /><g
     id="g4293"
     transform="translate(-24.35072,-24.35072)"><g
       id="g4289"><path
         class="fil0"
         d="m 176,525 c -11,-33 18,-64 27,-73 14,-57 41,-100 80,-127 11,-68 157,-78 196,-78 4,-19 13,-41 31,-44 19,-2 34,20 39,30 31,12 27,43 9,65 -7,8 -36,1 -46,0 l -4,4 c 21,6 52,8 45,33 12,0 22,-1 28,0 6,-24 14,-39 24,-45 22,-14 42,11 52,29 33,13 29,46 9,70 -6,7 -39,0 -50,-1 -15,18 -60,74 -110,107 -59,128 -306,106 -330,30 z M 318,305 c 57,-24 121,-18 167,-8 8,-10 13,-17 13,-17 7,-8 36,2 46,0 8,-13 10,-23 -5,-28 -10,-3 -17,-29 -26,-27 -15,3 -11,40 -26,44 -39,-1 -132,4 -169,36 z m 213,31 c -18,-9 -253,-94 -308,124 -2,11 -36,31 -27,59 18,54 213,69 273,-5 -43,16 -76,1 -95,-42 -45,-102 82,-129 157,-136 z m 72,34 c 11,-6 37,5 50,0 20,-32 -8,-28 -13,-38 -5,-9 -14,-22 -21,-24 -15,-4 -18,40 -29,48 -60,-2 -240,7 -196,108 46,103 181,-58 209,-94 z"
         id="path4285"
         inkscape:connector-curvature="0" /><path
         class="fil0"
         d="m 227,514 c -12,-7 -2,-26 10,-19 20,10 79,34 108,18 12,-7 23,12 10,19 -35,19 -95,-1 -128,-18 z"
         id="path4287"
         inkscape:connector-curvature="0" /></g><path
       class="fil0"
       d="M 642,90 C 826,211 877,459 756,642 635,826 388,877 204,756 20,635 -31,388 90,204 211,20 459,-31 642,90 Z M 142,203 736,597 C 826,435 778,228 620,124 463,21 255,57 142,203 Z M 705,644 111,249 C 20,411 69,618 227,722 383,825 591,789 705,644 Z"
       id="path4291"
       inkscape:connector-curvature="0" /></g></svg>