<?xml version="1.0" encoding="UTF-8" standalone="no"?>
<svg
   xmlns:dc="http://purl.org/dc/elements/1.1/"
   xmlns:cc="http://creativecommons.org/ns#"
   xmlns:rdf="http://www.w3.org/1999/02/22-rdf-syntax-ns#"
   xmlns:svg="http://www.w3.org/2000/svg"
   xmlns="http://www.w3.org/2000/svg"
   xmlns:sodipodi="http://sodipodi.sourceforge.net/DTD/sodipodi-0.dtd"
   xmlns:inkscape="http://www.inkscape.org/namespaces/inkscape"
   version="1.1"
   fill="#ffffff"
   id="svg3820"
   sodipodi:docname="icon-alcohol.svg"
   width="128"
   height="128"
   inkscape:version="0.92.3 (2405546, 2018-03-11)">
  <metadata
     id="metadata3826">
    <rdf:RDF>
      <cc:Work
         rdf:about="">
        <dc:format>image/svg+xml</dc:format>
        <dc:type
           rdf:resource="http://purl.org/dc/dcmitype/StillImage" />
        <dc:title></dc:title>
      </cc:Work>
    </rdf:RDF>
  </metadata>
  <defs
     id="defs3824" />
  <sodipodi:namedview
     pagecolor="#ffffff"
     bordercolor="#666666"
     borderopacity="1"
     objecttolerance="10"
     gridtolerance="10"
     guidetolerance="10"
     inkscape:pageopacity="0"
     inkscape:pageshadow="2"
     inkscape:window-width="1600"
     inkscape:window-height="837"
     id="namedview3822"
     showgrid="false"
     fit-margin-top="0"
     fit-margin-left="0"
     fit-margin-right="0"
     fit-margin-bottom="0"
     inkscape:zoom="2.36"
     inkscape:cx="50"
     inkscape:cy="78"
     inkscape:window-x="-8"
     inkscape:window-y="-8"
     inkscape:window-maximized="1"
     inkscape:current-layer="svg3820" />
  <path
     d="M 76,116 H 52 a 4.53,4.53 0 0 1 -4,-4 V 50 c 0,-6.73 2.69,-11.23 8,-13.41 V 14 a 2,2 0 0 1 2,-2 h 12 a 2,2 0 0 1 2,2 v 22.59 c 5.31,2.17 8,6.68 8,13.41 v 62 a 4.53,4.53 0 0 1 -4,4 z m -0.37,-3.94 z m -23.27,0 z M 52.26,112 H 75.73 A 1.69,1.69 0 0 0 76,111.73 V 50 C 76,44.5 73.91,41.3 69.41,39.91 A 2,2 0 0 1 68,38 V 16 h -8 v 22 a 2,2 0 0 1 -1.41,1.91 C 54.09,41.3 52,44.5 52,50 v 61.73 a 1.69,1.69 0 0 0 0.27,0.27 z m 23.79,-0.37 z m -24.13,0 z"
     id="path3810"
     inkscape:connector-curvature="0" />
  <path
     d="M 78,92 H 50 A 2,2 0 0 1 48,90 V 62 a 2,2 0 0 1 2,-2 h 28 a 2,2 0 0 1 2,2 v 28 a 2,2 0 0 1 -2,2 z M 52,88 H 76 V 64 H 52 Z"
     id="path3812"
     inkscape:connector-curvature="0" />
  <path
     d="M 70,24 H 58 a 2,2 0 0 1 0,-4 h 12 a 2,2 0 0 1 0,4 z"
     id="path3814"
     inkscape:connector-curvature="0" />
  <path
     d="M 64,128 A 64,64 0 1 1 128,64 64.07,64.07 0 0 1 64,128 Z M 64,4 A 60,60 0 1 0 124,64 60.07,60.07 0 0 0 64,4 Z"
     id="path3816"
     inkscape:connector-curvature="0" />
  <path
     d="m 20.16,109.84 a 2,2 0 0 1 -1.41,-3.41 l 87.68,-87.68 a 2.0011122,2.0011122 0 0 1 2.83,2.83 l -87.69,87.67 a 2,2 0 0 1 -1.41,0.59 z"
     id="path3818"
     inkscape:connector-curvature="0" />
</svg>
