<?xml version="1.0" encoding="UTF-8" standalone="no"?>
<svg
   xmlns:dc="http://purl.org/dc/elements/1.1/"
   xmlns:cc="http://creativecommons.org/ns#"
   xmlns:rdf="http://www.w3.org/1999/02/22-rdf-syntax-ns#"
   xmlns:svg="http://www.w3.org/2000/svg"
   xmlns="http://www.w3.org/2000/svg"
   xmlns:sodipodi="http://sodipodi.sourceforge.net/DTD/sodipodi-0.dtd"
   xmlns:inkscape="http://www.inkscape.org/namespaces/inkscape"
   version="1.1"
   id="svg4253"
   sodipodi:docname="icon-nut.svg"
   width="97.5"
   height="97.5"
   fill="#ffffff"
   inkscape:version="0.92.3 (2405546, 2018-03-11)">
  <metadata
     id="metadata4259">
    <rdf:RDF>
      <cc:Work
         rdf:about="">
        <dc:format>image/svg+xml</dc:format>
        <dc:type
           rdf:resource="http://purl.org/dc/dcmitype/StillImage" />
        <dc:title></dc:title>
      </cc:Work>
    </rdf:RDF>
  </metadata>
  <defs
     id="defs4257" />
  <sodipodi:namedview
     fill="#666666"
     pagecolor="#ffffff"
     bordercolor="#666666"
     borderopacity="1"
     objecttolerance="10"
     gridtolerance="10"
     guidetolerance="10"
     inkscape:pageopacity="0"
     inkscape:pageshadow="2"
     inkscape:window-width="640"
     inkscape:window-height="480"
     id="namedview4255"
     showgrid="false"
     fit-margin-top="0"
     fit-margin-left="0"
     fit-margin-right="0"
     fit-margin-bottom="0"
     inkscape:zoom="2.36"
     inkscape:cx="50"
     inkscape:cy="47.5"
     inkscape:window-x="0"
     inkscape:window-y="0"
     inkscape:window-maximized="0"
     inkscape:current-layer="svg4253" />
  <path
     d="M 48.75,0 A 48.75,48.75 0 1 0 97.5,48.75 48.81,48.81 0 0 0 48.75,0 Z m 0,93.18 a 44.39,44.39 0 0 1 -33.14,-74 l 0.9,-0.89 62.66,62.7 -0.89,0.9 A 44.24,44.24 0 0 1 48.75,93.18 Z M 82.08,78.07 81.2,78.96 18.56,16.28 19.45,15.4 a 44.39,44.39 0 0 1 62.63,62.67 z"
     id="path4211"
     inkscape:connector-curvature="0" />
  <path
     class="cls-1"
     d="m 39.26,56.97 a 25.46,25.46 0 0 1 10.77,1.86 11.76,11.76 0 0 1 6.75,7.47 3.82,3.82 0 0 1 -0.21,3.29 2.42,2.42 0 0 0 -0.1,2.5 4.86,4.86 0 0 1 -0.11,4.33 c -1.93,4.63 -5.57,7.09 -10.31,8 A 10.66,10.66 0 0 1 42.36,84.19 40.06,40.06 0 0 0 35.72,83.67 12.05,12.05 0 0 1 24.3,75.04 7.14,7.14 0 0 0 23.24,73.21 c -0.26,-0.38 -0.65,-0.67 -0.93,-1 -0.84,-1.07 -0.93,-1.7 0,-2.78 a 10.56,10.56 0 0 0 1.92,-3.83 10,10 0 0 1 4,-5.41 16,16 0 0 1 9.71,-3.19 c 0.39,-0.02 0.85,-0.03 1.32,-0.03 z m 14.77,13.67 a 18.26,18.26 0 0 1 0.75,-1.81 2.44,2.44 0 0 0 0.13,-2 8.92,8.92 0 0 0 -4.32,-5.46 16.93,16.93 0 0 0 -5,-1.88 56.35,56.35 0 0 0 -8.49,-0.54 13.44,13.44 0 0 0 -7.92,2.88 7.75,7.75 0 0 0 -3.1,4.16 11.32,11.32 0 0 1 -2.19,4.54 0.26,0.26 0 0 0 0,0.18 c 2.95,-0.19 5.88,-0.42 8.81,-0.57 a 52,52 0 0 1 9.29,0.1 37.56,37.56 0 0 0 5,0 c 1.18,0 2.36,-0.12 3.54,-0.06 1.18,0.06 2.32,0.31 3.5,0.46 z M 24.5,71.27 a 18.24,18.24 0 0 1 1.55,3 10.35,10.35 0 0 0 9.76,7.56 46.07,46.07 0 0 1 7.26,0.57 c 4.25,0.66 7.6,-1 10.17,-4.31 1.53,-2 2.38,-4.14 1,-6.59 a 3,3 0 0 0 -0.41,-0.38 c -1.24,0.09 -2.69,0.08 -4.1,0.31 -2,0.32 -3.94,0.85 -5.92,1.25 -2.92,0.58 -5.89,1 -8.75,0 C 31.6,71.49 28.1,71.61 24.5,71.27 Z"
     id="path4213"
     inkscape:connector-curvature="0" />
  <path
     class="cls-1"
     d="m 44.67,66.56 a 5.25,5.25 0 0 1 -0.93,-0.11 5.75,5.75 0 0 0 -5.33,0.56 4.85,4.85 0 0 1 -3.91,0.42 9.47,9.47 0 0 0 -5.94,0 c 1.55,-1.33 3.34,-1.38 5.22,-1.11 a 13.78,13.78 0 0 0 2.29,0.27 4.28,4.28 0 0 0 1.93,-0.44 c 2.22,-1.22 4.34,-1.04 6.67,0.41 z"
     id="path4215"
     inkscape:connector-curvature="0" />
  <path
     class="cls-1"
     d="m 50.34,63.72 a 3.38,3.38 0 0 0 -3.8,-0.55 3.58,3.58 0 0 1 -3,-0.19 10.76,10.76 0 0 0 -4.64,-1.15 4.84,4.84 0 0 1 4.18,0 5.49,5.49 0 0 0 3.91,0.27 c 1.51,-0.46 2.58,0.12 3.35,1.62 z"
     id="path4217"
     inkscape:connector-curvature="0" />
  <path
     class="cls-1"
     d="m 50.86,75.3 -6.36,0.39 a 3.56,3.56 0 0 1 -0.93,0 10.29,10.29 0 0 0 -5.22,-0.08 5,5 0 0 1 3.47,-1.06 c 2.37,0 4.74,0.14 7.12,0.24 0.65,0 1.3,0.11 1.95,0.17 z"
     id="path4219"
     inkscape:connector-curvature="0" />
  <path
     class="cls-1"
     d="M 42.11,80.89 C 40.57,80.53 39.04,80.15 37.5,79.83 a 17.45,17.45 0 0 0 -3,-0.47 6.44,6.44 0 0 1 -4,-1.53 10.74,10.74 0 0 0 1.06,0.23 c 1.12,0.13 2.24,0.29 3.37,0.34 2.64,0.11 4.93,1.26 7.31,2.15 z"
     id="path4221"
     inkscape:connector-curvature="0" />
  <path
     class="cls-1"
     d="m 82.02,57.74 v 0 a 8,8 0 0 1 -4.33,4.56 c -4.53,2 -10.06,-0.77 -12.38,-6.12 a 11.58,11.58 0 0 1 -1,-4.07 11,11 0 0 0 -2.1,-6.08 22.53,22.53 0 0 1 -1.78,-3.09 13.66,13.66 0 0 1 -0.61,-10.2 6.78,6.78 0 0 1 3.4,-3.77 c 4.11,-1.78 9.54,1.58 12,7.49 a 15.9,15.9 0 0 1 1,3.41 11.74,11.74 0 0 0 3,5.69 11.58,11.58 0 0 1 2.3,3.5 11.06,11.06 0 0 1 0.5,8.68 z m -21,-24.53 a 12.4,12.4 0 0 0 0.6,9.17 15.49,15.49 0 0 0 1.61,2.82 12.66,12.66 0 0 1 2.27,6.78 11.4,11.4 0 0 0 0.86,3.68 c 2,4.69 6.86,7.14 10.73,5.47 a 7,7 0 0 0 3.65,-3.88 10.1,10.1 0 0 0 -0.3,-7.69 10.52,10.52 0 0 0 -2.1,-3.15 13,13 0 0 1 -3.37,-6.31 15.49,15.49 0 0 0 -1,-3.11 C 71.69,31.72 67.03,28.66 63.58,30.16 a 5.54,5.54 0 0 0 -2.56,3.05 z"
     id="path4223"
     inkscape:connector-curvature="0" />
  <path
     class="cls-1"
     d="m 66.09,34.83 a 0.58,0.58 0 0 1 -0.34,0.34 0.61,0.61 0 0 1 -0.83,-0.33 l -0.86,-2 a 0.63,0.63 0 1 1 1.15,-0.5 l 0.86,2 a 0.69,0.69 0 0 1 0.02,0.49 z"
     id="path4225"
     inkscape:connector-curvature="0" />
  <path
     class="cls-1"
     d="m 67.86,45.94 a 0.58,0.58 0 0 1 -0.34,0.34 0.61,0.61 0 0 1 -0.83,-0.33 l -0.86,-2 a 0.63,0.63 0 1 1 1.15,-0.5 l 0.86,2 a 0.69,0.69 0 0 1 0.02,0.49 z"
     id="path4227"
     inkscape:connector-curvature="0" />
  <path
     class="cls-1"
     d="m 64.67,41.41 a 0.55,0.55 0 0 1 -0.56,0.39 0.63,0.63 0 0 1 -0.65,-0.6 v -2.13 a 0.6254998,0.6254998 0 0 1 1.25,-0.05 v 2.13 a 0.38,0.38 0 0 1 -0.04,0.26 z"
     id="path4229"
     inkscape:connector-curvature="0" />
  <path
     class="cls-1"
     d="m 78.04,50.71 a 0.55,0.55 0 0 1 -0.56,0.39 0.63,0.63 0 0 1 -0.65,-0.6 v -2.13 a 0.6254998,0.6254998 0 0 1 1.25,-0.05 v 2.13 a 1.44,1.44 0 0 0 -0.04,0.26 z"
     id="path4231"
     inkscape:connector-curvature="0" />
  <path
     class="cls-1"
     d="M 70.86,36.62 A 0.9,0.9 0 0 1 70.6,36.93 0.68,0.68 0 0 1 69.73,36.72 L 68.6,34.91 a 0.63285069,0.63285069 0 0 1 1.08,-0.66 l 1.13,1.81 a 0.58,0.58 0 0 1 0.05,0.56 z"
     id="path4233"
     inkscape:connector-curvature="0" />
  <path
     class="cls-1"
     d="m 74.07,54.39 a 0.61,0.61 0 0 1 -0.57,0.44 0.63,0.63 0 0 1 -0.65,-0.6 l -0.1,-2.15 A 0.6254998,0.6254998 0 0 1 74,52.03 l 0.1,2.15 a 0.31,0.31 0 0 1 -0.03,0.21 z"
     id="path4235"
     inkscape:connector-curvature="0" />
  <path
     class="cls-1"
     d="m 78.84,56.62 a 0.76,0.76 0 0 1 -0.65,0.43 0.64,0.64 0 0 1 -0.6,-0.72 l 0.16,-2.12 a 0.6622877,0.6622877 0 0 1 1.32,0.11 l -0.16,2.12 z"
     id="path4237"
     inkscape:connector-curvature="0" />
  <path
     class="cls-1"
     d="m 73.78,42.69 -0.07,0.14 a 0.69,0.69 0 0 1 -0.87,0.13 L 71.13,41.6 a 0.62201286,0.62201286 0 0 1 0.74,-1 l 1.71,1.36 a 0.61,0.61 0 0 1 0.2,0.73 z"
     id="path4239"
     inkscape:connector-curvature="0" />
  <path
     class="cls-1"
     d="M 69.82,52.72 A 0.78,0.78 0 0 1 69.4,53.1 0.62,0.62 0 0 1 68.64,52.6 l -0.47,-2.09 a 0.64228109,0.64228109 0 1 1 1.26,-0.25 l 0.47,2.09 c -0.07,0.17 -0.04,0.25 -0.08,0.37 z"
     id="path4241"
     inkscape:connector-curvature="0" />
  <path
     class="cls-1"
     d="m 73.58,58.57 -0.08,0.17 a 0.73,0.73 0 0 1 -0.93,0.11 l -1.71,-1.36 a 0.66,0.66 0 1 1 0.82,-1 l 1.72,1.34 a 0.76,0.76 0 0 1 0.18,0.74 z"
     id="path4243"
     inkscape:connector-curvature="0" />
  <path
     class="cls-1"
     d="m 74.05,48.05 a 0.9,0.9 0 0 1 -0.26,0.31 0.68,0.68 0 0 1 -0.87,-0.21 l -1.1,-1.87 a 0.63285069,0.63285069 0 0 1 1.08,-0.66 l 1.1,1.87 a 0.58,0.58 0 0 1 0.05,0.56 z"
     id="path4245"
     inkscape:connector-curvature="0" />
  <path
     class="cls-2"
     d="m 30.76,49.93 c -1.35,-0.81 -8.89,-12.29 -5.63,-20 0.12,-0.28 0.26,-0.56 0.4,-0.83 L 24.2,27.83 c -0.26,0.48 -0.5,1 -0.72,1.47 -3.66,8.62 4.63,21.49 6.55,22.3 1.32,0.56 8.37,-0.49 14,-3.88 L 42.71,46.4 c -4.98,2.81 -11.04,3.8 -11.95,3.53 z"
     id="path4247"
     inkscape:connector-curvature="0" />
  <path
     class="cls-2"
     d="M 53.79,24.83 A 15,15 0 0 0 46.5,17.19 v -3.45 a 1,1 0 0 0 -2,0 v 2.59 a 15.38,15.38 0 0 0 -12.12,-0.5 16.65,16.65 0 0 0 -6.94,5.61 l 1.31,1.28 a 17.42,17.42 0 0 1 2.8,-3 c 4.08,-3.46 9,-4 14.57,-1.65 5.57,2.35 8.59,6.28 8.93,11.62 a 18.58,18.58 0 0 1 -0.9,6.75 v 0 c -5.34,-2.27 -5.38,-8.95 -5.38,-9 a 0.89,0.89 0 0 0 -1.72,-0.35 c -0.65,1.53 -3.93,2.94 -6.25,3.62 -1.12,-2.13 -2.39,-5.48 -1.74,-7 a 0.89,0.89 0 0 0 -1.45,-1 12.15,12.15 0 0 1 -6,2.93 l 1.53,1.53 a 13.52,13.52 0 0 0 4,-1.81 19.69,19.69 0 0 0 2.36,6.77 0.9,0.9 0 0 0 1,0.42 19.72,19.72 0 0 0 6.63,-3 11.33,11.33 0 0 0 4.73,7.69 17.92,17.92 0 0 1 -0.92,2.84 10.53,10.53 0 0 1 -1.93,2.94 l 1.27,1.27 a 12.41,12.41 0 0 0 2.3,-3.51 19.84,19.84 0 0 0 0.9,-2.69 c 0.28,0.12 0.58,0.22 0.89,0.32 a 0.89,0.89 0 0 0 1.09,-0.5 c 0.15,-0.28 2.86,-6.75 0.33,-13.08 z"
     id="path4249"
     inkscape:connector-curvature="0" />
  <path
     class="cls-2"
     d="m 29.72,44.49 a 2.29,2.29 0 0 0 1.34,0.57 1.13,1.13 0 0 0 0.53,-0.12 1.32,1.32 0 0 0 0.44,-1.62 10.69,10.69 0 0 0 -0.68,-1.85 5.07,5.07 0 0 0 -1,-1.55 1.94,1.94 0 0 0 -1.13,-0.52 h -0.13 a 1,1 0 0 0 -0.89,0.41 2.43,2.43 0 0 0 0,1.94 10.69,10.69 0 0 0 0.58,1.5 4,4 0 0 0 0.94,1.24 z m -1.09,-4.4 a 0.53,0.53 0 0 1 0.47,-0.2 h 0.12 a 1.44,1.44 0 0 1 0.81,0.38 4.67,4.67 0 0 1 0.86,1.41 10.15,10.15 0 0 1 0.61,1.75 0.83,0.83 0 0 1 -0.18,1 0.62,0.62 0 0 1 -0.29,0.07 1.76,1.76 0 0 1 -1,-0.44 3.49,3.49 0 0 1 -0.84,-1.1 10.56,10.56 0 0 1 -0.57,-1.47 1.88,1.88 0 0 1 0,-1.41 z"
     id="path4251"
     inkscape:connector-curvature="0" />
</svg>
