<svg xmlns="http://www.w3.org/2000/svg" data-name="Layer 1" viewBox="0 0 100 125" x="0px" y="0px"><path fill="currentColor" d="M50,5A45,45,0,1,0,95,50,45,45,0,0,0,50,5Zm1.77686,21.03265a6.31722,6.31722,0,0,1,6.03369-4.65405,3.813,3.813,0,0,1,3.998,4.709,6.31717,6.31717,0,0,1-6.03369,4.654A3.813,3.813,0,0,1,51.77686,26.03265ZM61.86768,69.054A34.11751,34.11751,0,0,1,51.7373,77.21979c-5.38964,2.7381-11.40258,1.4414-10.28833-3.68421l5.57789-25.66c1.06152-4.88269-3.31641-4.41431-8.27149-1.56158a.49791.49791,0,0,1-.623-.756A34.11751,34.11751,0,0,1,48.2627,37.39227c5.38964-2.738,11.40258-1.44134,10.28857,3.68421l-5.57813,25.66c-1.06152,4.88269,3.31641,4.41425,8.27149,1.56152A.49791.49791,0,0,1,61.86768,69.054Z"/></svg>